<svg id="Layer_1" xmlns="http://www.w3.org/2000/svg" width="695" height="185" viewBox="318 -62 695 185">
  <style>
    .st0{fill:#4e8c63;} .st1{fill:#F2F2F2;} .st2{fill:#FFFFFF;}
  </style>
  <path class="st0" d="M495.2 66.5V-4.3h9.2l43.3 57.1V-4.3h8.7v70.8h-9.2L503.9 9v57.5zM626.7 63.7c-5.7 2.2-11.9 3.3-18.5 3.3-25.6 0-38.5-12.3-38.5-36.9 0-23.3 12.4-34.9 37.1-34.9 7.1 0 13.7 1 19.8 3v7.9c-6.1-2.3-12.4-3.5-18.8-3.5-19.3 0-29 9.2-29 27.5 0 19.6 9.5 29.5 28.5 29.5 3 0 6.4-.4 10.1-1.2V34.3h9.2v29.4h.1zM641.3 39.2V-4.3h9.2v43.5c0 13.6 6.8 20.4 20.3 20.4s20.3-6.8 20.3-20.4V-4.3h9.2v43.5c0 18.6-9.8 27.8-29.5 27.8s-29.5-9.3-29.5-27.8zM725.7-4.3v63.4h37.1v7.4h-46.2V-4.3zM776 66.5h-9.5l35.2-80.1 35.2 80.1h-10.2l-9.1-22.3h-23.5l2.6-7.4h17.8L801.3 4.7zM846.5 66.5V-4.3h30.2c13.5 0 20.2 5.7 20.2 17 0 9.2-6.6 16-19.8 20.4l24.3 33.4h-12.1l-22.5-31.8v-6c13.5-2.2 20.3-7.3 20.3-15.6 0-6.5-3.8-9.8-11.3-9.8h-20.2v63.2h-9.1zM935.8-4.3v50.4c0 13.6-8 20.4-24 20.4v-7.4c9.9 0 14.9-4.3 14.9-13V-4.3h9.1zM952.1 64v-8.4c7.4 2.6 15.4 4 24.1 4 12.2 0 18.3-4.5 18.3-13.4 0-7.6-4.5-11.4-13.5-11.4h-9.1c-14.8 0-22.2-6.4-22.2-19.3 0-13.5 9.5-20.3 28.5-20.3 8.2 0 15.9 1 23 3v8.4c-7.1-2.6-14.8-4-23-4-12.9 0-19.3 4.3-19.3 12.9 0 7.6 4.4 11.4 13.1 11.4h9.1c15.1 0 22.6 6.4 22.6 19.3 0 13.9-9.1 20.8-27.4 20.8-8.7 0-16.7-1-24.2-3z"/>
  <path class="st0" d="M497.6 64.2V-6.6h9.1l43.3 57v-57h8.7v70.8h-9.1L506.2 6.7v57.5zM629 61.4c-5.7 2.2-11.9 3.3-18.5 3.3-25.6 0-38.5-12.3-38.5-36.9 0-23.3 12.4-34.9 37.1-34.9 7.1 0 13.7 1 19.8 3v7.9C622.8 1.5 616.5.3 610.1.3c-19.3 0-29 9.2-29 27.5 0 19.6 9.5 29.5 28.5 29.5 3 0 6.4-.4 10.1-1.2V32h9.2l.1 29.4zM643.6 36.9V-6.6h9.2v43.5c0 13.6 6.8 20.4 20.3 20.4s20.3-6.8 20.3-20.4V-6.6h9.2v43.5c0 18.6-9.8 27.8-29.5 27.8s-29.5-9.3-29.5-27.8zM728-6.6v63.4h37.1v7.4h-46.2V-6.6zM778.3 64.2h-9.5L804-15.9l35.2 80.1H829l-9.1-22.3h-23.4l2.5-7.4h17.8L803.6 2.4zM848.8 64.2V-6.6H879c13.5 0 20.2 5.7 20.2 17 0 9.2-6.6 16-19.7 20.4l24.3 33.4h-12.1l-22.5-31.8v-6c13.5-2.2 20.3-7.3 20.3-15.6 0-6.5-3.8-9.8-11.3-9.8H858v63.2h-9.2zM938.1-6.6v50.4c0 13.6-8 20.4-24 20.4v-7.4c9.9 0 14.9-4.3 14.9-13V-6.6h9.1zM954.5 61.7v-8.4c7.4 2.6 15.4 4 24.1 4 12.2 0 18.3-4.5 18.3-13.4 0-7.6-4.5-11.4-13.5-11.4h-9.1c-14.8 0-22.2-6.4-22.2-19.3 0-13.5 9.5-20.3 28.5-20.3 8.2 0 15.9 1 23 3v8.4c-7.1-2.6-14.8-4-23-4-12.9 0-19.3 4.3-19.3 12.9 0 7.6 4.4 11.4 13.1 11.4h9.1c15.1 0 22.6 6.4 22.6 19.3 0 13.9-9.1 20.8-27.4 20.8-8.8 0-16.8-1-24.2-3zM869.9 102l-3.4-10.2h-2.4l4.6 12.9c-.1.3-.3.7-.5 1.3-.2.6-.4.9-.4 1-.1.2-.3.3-.5.5-.2.1-.5.2-.9.2h-.4c-.2 0-.4-.1-.8-.2v1.9c.2.1.4.1.6.1h.7c1.2 0 2.1-.4 2.6-1.1.5-.7 1.4-2.7 2.6-5.9.5-1.4 1.2-3.1 1.9-5.3 1-2.9 1.7-4.7 2-5.5h-2.3l-3.4 10.3zm-12.5.9c-1.5 0-2.6-.7-3.1-2.1-.3-.7-.4-1.7-.4-2.9 0-1.6.4-2.8 1.1-3.5.7-.7 1.6-1.1 2.5-1.1 1.1 0 1.9.4 2.5 1.3.6.9.9 2 .9 3.3 0 1.5-.3 2.7-.9 3.6-.6.9-1.5 1.4-2.6 1.4zm-5.5 1.4h1.9v-1.6c.4.6.9 1 1.3 1.3.7.5 1.5.7 2.4.7 1.7 0 3-.7 4-2s1.4-3 1.4-4.9c0-2.1-.5-3.7-1.5-4.8-1-1.1-2.2-1.6-3.8-1.6-.8 0-1.5.2-2.1.5-.6.3-1.2.8-1.7 1.4V87h-2.1l.2 17.3z"/>
  <g>
    <path class="st0" d="M401.2-61.1L318.6-32l13 108.3 69.7 38.3 70.1-38.8 13.1-108.3z"/>
    <path class="st0" d="M476.2-26.3L401-51.9v157.4l63-34.9zM327.8-25.8L339 71.1l62 34.4V-51.9z"/>
    <path class="st1" d="M421.7 31.9L401 41.5h-21.8L369 67.2l-19.1.4L401-46.2l20.7 78.1zm-2-4.9L401.2-9.7 386 26.4h15l18.7.6z"/>
    <path class="st2" d="M401-46.2l.2 36.5 17.3 36.1h-17.4l-.1 15.1h24.1l11.2 26 18.2.4z"/>
  </g>
  <path class="st0" d="M971.2 86.8c.9.8 2.8 2.3 2.8 5.4 0 2.9-1.7 4.3-3.3 5.6-.5.5-1.1 1.1-1.1 1.9 0 .9.6 1.3 1 1.7l1.4 1.1c1.7 1.5 3.3 2.8 3.3 5.6 0 3.7-3.6 7.5-10.4 7.5-5.8 0-8.5-2.7-8.5-5.7 0-1.4.7-3.5 3.1-4.8 2.5-1.5 5.8-1.7 7.6-1.8-.6-.7-1.2-1.5-1.2-2.7 0-.7.2-1.1.4-1.5-.4 0-.9.1-1.3.1-4.2 0-6.6-3.1-6.6-6.2 0-1.8.8-3.9 2.5-5.3 2.3-1.9 5-2.2 7.1-2.2h8.2l-2.5 1.4-2.5-.1m-2.8 17.7h-.9c-.4 0-2.5.1-4.2.6-.9.3-3.4 1.3-3.4 4.1s2.7 4.8 7 4.8c3.8 0 5.8-1.8 5.8-4.3 0-2-1.3-3.1-4.3-5.2zm1.1-7.6c.9-.9 1-2.2 1-2.9 0-2.9-1.7-7.3-5-7.3-1 0-2.1.5-2.8 1.3-.7.8-.9 1.9-.9 2.9 0 2.7 1.5 7.1 5 7.1 1 0 2.1-.4 2.7-1.1zm-23.3 6.9c-6.3 0-9.7-4.9-9.7-9.4 0-5.2 4.2-9.6 10.3-9.6 5.8 0 9.5 4.6 9.5 9.4-.1 4.7-3.7 9.6-10.1 9.6m4.9-3.2c1-1.3 1.2-2.9 1.2-4.4 0-3.5-1.7-10.1-6.6-10.1-1.3 0-2.6.5-3.6 1.4-1.5 1.4-1.8 3.1-1.8 4.8 0 3.9 1.9 10.4 6.7 10.4 1.6-.1 3.2-.8 4.1-2.1zm-26.4 3.2c-6.3 0-9.7-4.9-9.7-9.4 0-5.2 4.2-9.6 10.3-9.6 5.8 0 9.5 4.6 9.5 9.4 0 4.7-3.6 9.6-10.1 9.6m5-3.2c1-1.3 1.2-2.9 1.2-4.4 0-3.5-1.7-10.1-6.6-10.1-1.3 0-2.6.5-3.6 1.4-1.5 1.4-1.8 3.1-1.8 4.8 0 3.9 1.9 10.4 6.7 10.4 1.6-.1 3.1-.8 4.1-2.1zm-17.7 2.6v-4.9c0-.4 0-1.6.1-1.9.1-.3.1-.4.4-.6l1-1h-8.4l-3.2 1.7 6-.3v6.4c-1.2.5-2.5 1-5.1 1-8.7 0-14.1-7.1-14.1-14.5 0-7 4.7-11.8 11-11.8 4.7 0 7.2 2.4 8.5 3.7l-1 1.6 1.4-.3 3.3-3.1c-.9-.6-2.3-1.6-5.3-2.5-1.9-.5-3.9-.8-6.1-.8-10.2 0-16.1 7.2-16.1 14.9 0 6.3 4.2 14.4 15.2 14.4 2.2 0 4.3-.3 6.6-.7l5.8-1.3m71.8-1.1c-1.3-.1-1.6-.4-1.6-1.9V77.6v-.3c.2-1.4.6-1.6 1.8-2.4h-5.7l-3 1.4h3V101c0 .8-.2.9-1.1 2.1h7.1l1.5-.9c-.7 0-1.4-.1-2-.1m16.2.3c-.4.2-.9.5-1.3.7-1.3.6-2.7.8-3.8.8-1.3 0-3.2-.1-5.3-1.5-2.8-2-4-5.4-4-8.4 0-6.1 5-9.1 9.1-9.1 1.4 0 2.9.4 4.1 1.1 2 1.3 2.5 3 2.8 3.9l-9.3 3.8-3 .2c1 5 4.4 8 8.2 8 2 0 3.5-.7 4.8-1.4l-2.3 1.9m-3.7-11.8c.8-.3 1.1-.5 1.1-1.1 0-1.6-1.8-3.4-3.9-3.4-1.6 0-4.6 1.2-4.6 5.5 0 .7.1 1.4.1 2.1l7.3-3.1z"/>
</svg>
