<svg id="Layer_1" xmlns="http://www.w3.org/2000/svg" width="2393.2" height="708.8" viewBox="1452 -609.8 2393.2 708.8">
  <style>
    .st0{fill:#4e8c63;} .st1{fill:#F2F2F2;} .st2{enable-background:new ;}
  </style>
  <g id="logo">
    <path id="background" class="st0" d="M1452-609.8h630v630h-630z"/>
    <path id="j" class="st1" d="M1617.6-83.3l48.2-29.2c9.3 16.5 17.8 30.4 38.1 30.4 19.5 0 31.7-7.6 31.7-37.2v-201.3h59.2v202.1c0 61.3-35.9 89.2-88.4 89.2-47.3.1-74.8-24.4-88.8-54"/>
    <path id="s" class="st1" d="M1827-89.7l48.2-27.9c12.7 20.7 29.2 35.9 58.4 35.9 24.5 0 40.2-12.3 40.2-29.2 0-20.3-16.1-27.5-43.1-39.3l-14.8-6.3c-42.7-18.2-71-41-71-89.2 0-44.4 33.8-78.2 86.7-78.2 37.6 0 64.7 13.1 84.2 47.4l-46.1 29.6c-10.1-18.2-21.1-25.4-38.1-25.4-17.3 0-28.3 11-28.3 25.4 0 17.8 11 25 36.4 35.9l14.8 6.3c50.3 21.6 78.7 43.6 78.7 93 0 53.3-41.9 82.5-98.1 82.5-55.2 0-90.8-26.2-108.1-60.5"/>
  </g>
  <g class="st2">
    <path class="st0" d="M2220.6-127.4c0 33-7 58.6-20.9 76.9-14 18.3-32.6 27.4-56 27.4-10.9 0-19.8-1.6-26.8-4.7V-60c7 5 16 7.6 27.1 7.6 29.3 0 44-24.9 44-74.6v-178.7h32.6v178.3zM2429-27.8h-31.8v-31h-.8c-13.8 23.8-34.2 35.7-61.1 35.7-19.8 0-35.3-5.2-46.4-15.7-11.2-10.5-16.8-24.4-16.8-41.7 0-37.1 21.8-58.7 65.5-64.7l59.5-8.3c0-33.7-13.6-50.6-40.9-50.6-23.9 0-45.5 8.1-64.7 24.4v-32.6c19.5-12.4 42-18.6 67.5-18.6 46.7 0 70 24.7 70 74v129.1zm-31.8-100.4l-47.9 6.6c-14.7 2.1-25.8 5.7-33.3 11-7.5 5.2-11.2 14.5-11.2 27.8 0 9.7 3.5 17.6 10.4 23.7 6.9 6.1 16.1 9.2 27.6 9.2 15.8 0 28.8-5.5 39.1-16.6 10.3-11 15.4-25 15.4-42v-19.7zM2644.9-226.3l-79.1 198.5h-31.2l-75.2-198.5h34.9l50.4 144.2c3.7 10.6 6.1 19.8 7 27.7h.8c1.3-10 3.4-18.9 6.2-26.9l52.7-145h33.5zM2821.1-27.8h-31.8v-31h-.8c-13.8 23.8-34.2 35.7-61.1 35.7-19.8 0-35.3-5.2-46.4-15.7-11.2-10.5-16.8-24.4-16.8-41.7 0-37.1 21.8-58.7 65.5-64.7l59.5-8.3c0-33.7-13.6-50.6-40.9-50.6-23.9 0-45.5 8.1-64.7 24.4v-32.6c19.5-12.4 42-18.6 67.5-18.6 46.7 0 70 24.7 70 74v129.1zm-31.8-100.4l-47.9 6.6c-14.7 2.1-25.8 5.7-33.3 11-7.5 5.2-11.2 14.5-11.2 27.8 0 9.7 3.5 17.6 10.4 23.7 6.9 6.1 16.1 9.2 27.6 9.2 15.8 0 28.8-5.5 39.1-16.6 10.3-11 15.4-25 15.4-42v-19.7zM2872.3-39v-38.4c4.4 3.9 9.7 7.4 15.8 10.5 6.1 3.1 12.6 5.7 19.4 7.9 6.8 2.1 13.6 3.8 20.5 4.9 6.8 1.2 13.2 1.7 19 1.7 20 0 35-3.7 44.9-11.1 9.9-7.4 14.8-18.1 14.8-32.1 0-7.5-1.6-14-4.9-19.6-3.3-5.6-7.9-10.6-13.7-15.2-5.8-4.6-12.7-9-20.6-13.2-7.9-4.2-16.5-8.6-25.7-13.3-9.7-4.9-18.7-9.9-27.1-14.9-8.4-5-15.7-10.6-21.9-16.7-6.2-6.1-11.1-13-14.6-20.6-3.6-7.7-5.3-16.7-5.3-27 0-12.7 2.8-23.7 8.3-33.1 5.6-9.4 12.9-17.1 21.9-23.2 9-6.1 19.4-10.6 30.9-13.6 11.6-3 23.4-4.5 35.4-4.5 27.4 0 47.4 3.3 59.9 9.9v36.6c-16.4-11.4-37.5-17.1-63.2-17.1-7.1 0-14.2.7-21.3 2.2-7.1 1.5-13.4 3.9-19 7.3s-10.1 7.7-13.6 13-5.2 11.8-5.2 19.4c0 7.1 1.3 13.2 4 18.4 2.6 5.2 6.6 9.9 11.7 14.2 5.2 4.3 11.5 8.4 18.9 12.4 7.4 4 16 8.4 25.7 13.2 10 4.9 19.4 10.1 28.3 15.5s16.7 11.4 23.5 18c6.7 6.6 12 13.9 16 21.9 3.9 8 5.9 17.2 5.9 27.5 0 13.7-2.7 25.3-8 34.8-5.4 9.5-12.6 17.2-21.7 23.2-9.1 5.9-19.6 10.2-31.5 12.9-11.9 2.6-24.4 4-37.6 4-4.4 0-9.8-.4-16.3-1.1-6.5-.7-13.1-1.7-19.8-3.1-6.7-1.4-13.1-3-19.1-5-6.3-2-11.1-4.2-14.7-6.6zM3227.2-36.9c-15.3 9.2-33.3 13.8-54.3 13.8-28.3 0-51.1-9.2-68.5-27.6-17.4-18.4-26.1-42.3-26.1-71.6 0-32.7 9.4-59 28.1-78.8 18.7-19.8 43.7-29.8 75-29.8 17.4 0 32.8 3.2 46.1 9.7v32.6c-14.7-10.3-30.5-15.5-47.3-15.5-20.3 0-36.9 7.3-49.9 21.8s-19.5 33.6-19.5 57.3c0 23.3 6.1 41.6 18.3 55.1 12.2 13.4 28.6 20.2 49.1 20.2 17.3 0 33.6-5.7 48.8-17.3v30.1zM3378.8-194.1c-5.6-4.3-13.6-6.4-24-6.4-13.6 0-24.9 6.4-34 19.2-9.1 12.8-13.7 30.2-13.7 52.3v101.2h-31.8v-198.5h31.8v40.9h.8c4.5-14 11.4-24.8 20.7-32.7 9.3-7.8 19.7-11.7 31.2-11.7 8.3 0 14.6.9 19 2.7v33zM3429.6-276.7c-5.7 0-10.5-1.9-14.5-5.8s-6-8.8-6-14.7c0-5.9 2-10.9 6-14.8 4-3.9 8.8-5.9 14.5-5.9 5.8 0 10.8 2 14.8 5.9 4.1 3.9 6.1 8.9 6.1 14.8 0 5.7-2 10.5-6.1 14.5-4 4-9 6-14.8 6zm15.5 248.9h-31.8v-198.5h31.8v198.5zM3542-56.5h-.8v120h-31.8v-289.8h31.8v34.9h.8c15.6-26.4 38.5-39.5 68.6-39.5 25.6 0 45.6 8.9 59.9 26.7 14.3 17.8 21.5 41.6 21.5 71.4 0 33.2-8.1 59.8-24.2 79.8-16.2 20-38.3 29.9-66.3 29.9-25.7 0-45.5-11.2-59.5-33.4zm-.7-80v27.7c0 16.4 5.3 30.3 16 41.8 10.7 11.4 24.2 17.2 40.6 17.2 19.3 0 34.3-7.4 45.3-22.1 10.9-14.7 16.4-35.2 16.4-61.4 0-22.1-5.1-39.4-15.3-52-10.2-12.5-24-18.8-41.5-18.8-18.5 0-33.3 6.4-44.6 19.3-11.3 12.7-16.9 28.9-16.9 48.3zM3834.9-29.7c-7.5 4.1-17.4 6.2-29.7 6.2-34.8 0-52.1-19.4-52.1-58.2v-117.5H3719v-27.1h34.1v-48.5l31.8-10.3v58.7h50v27.1h-50v111.9c0 13.3 2.3 22.8 6.8 28.5 4.5 5.7 12 8.5 22.5 8.5 8 0 14.9-2.2 20.7-6.6v27.3z"/>
  </g>
</svg>
