<svg id="Layer_1" xmlns="http://www.w3.org/2000/svg" width="388.1" height="264.3"  viewBox="164 -102.3 388.1 264.3">
  <style>
    .st0{fill:#4e8c63;}
  </style>
  <path class="st0" d="M257.322134 138.47752h-14.968137c-.531276-25.337647-1.986512-49.169856-4.365706-71.49663h-.138593l-22.821788 71.49663h-11.410895L180.95692 66.98089h-.138594c-1.686226 21.446673-2.748778 45.278882-3.18766 71.49663h-13.651494c.87776-31.892083 3.095263-61.792357 6.629406-89.723984h18.571577l21.597542 65.914934h.138594l21.736137-65.914934h17.763113c3.903727 32.7027 6.190525 62.626135 6.906594 89.723983M322.276454 72.284658c-6.09813 33.189072-14.136574 57.276048-24.11533 72.330407-7.784356 11.580277-16.307878 17.393576-25.593666 17.393576-2.47159 0-5.520656-.741137-9.147195-2.223413v-7.99039c1.77862.254766 3.83443.39373 6.236724.39373 4.319508 0 7.807454-1.20435 10.463836-3.589887 3.187658-2.91823 4.75839-6.207028 4.75839-9.843235 0-2.47818-1.247346-7.5735-3.718936-15.285965l-16.44647-51.161662h14.714047l11.803576 38.261234c2.656382 8.685207 3.765133 14.753272 3.303154 18.204195 6.444614-17.277773 10.948914-36.107303 13.5129-56.48859h14.22897M387.877545 113.626245c0 7.619822-2.794976 13.85001-8.33873 18.736887-5.566853 4.863717-13.027823 7.295575-22.382908 7.295575-8.754512 0-17.231836-2.802427-25.45507-8.38412l3.83443-7.712465c7.068285 3.543565 13.466702 5.303767 19.218347 5.303767 5.38206 0 9.609174-1.20435 12.658238-3.589887 3.049065-2.385537 4.873884-5.720656 4.873884-9.959038 0-5.326927-3.695836-9.889556-10.510034-13.711047-6.28292-3.450923-18.825665-10.653855-18.825665-10.653855-6.7911-4.97952-10.209747-10.306446-10.209747-19.084295 0-7.272414 2.540887-13.132034 7.622662-17.60202 5.081774-4.469988 11.641884-6.71656 19.680327-6.71656 8.31563 0 15.868996 2.223412 22.660094 6.647078l-3.464846 7.689303c-5.820942-2.47818-11.572587-3.70569-17.231836-3.70569-4.596696 0-8.13084 1.111707-10.60243 3.33512-2.47159 2.200253-4.019222 5.049-4.019222 8.499923 0 5.303767 3.788232 9.912717 10.787222 13.82685 6.352218 3.450923 19.19525 10.792818 19.19525 10.792818 7.022088 4.97952 10.510033 10.260126 10.510033 18.991655M414.649258 120.52809c-3.62654-5.85962-5.451358-15.239644-5.451358-28.163233 0-22.58154 6.860396-33.88389 20.53499-33.88389 7.160682 0 12.427248 2.709786 15.7766 8.106194 3.62654 5.85962 5.42826 15.147003 5.42826 27.908468 0 22.766824-6.860397 34.161816-20.53499 34.161816-7.137584 0-12.40415-2.709785-15.753502-8.129354m53.289337 20.12652l-16.44647-8.129354c1.455235-1.204348 2.864272-2.50134 4.111617-4.006775 6.97589-8.221996 10.486935-20.404447 10.486935-36.547352 0-29.66867-11.618785-44.537744-34.856354-44.537744-11.410894 0-20.2809 3.77517-26.656218 11.30235-6.97589 8.245157-10.463836 20.381287-10.463836 36.40839 0 15.772336 3.09526 27.329452 9.285787 34.694508 5.63615 6.64708 14.159672 9.959038 25.570566 9.959038 4.250212 0 8.153938-.532693 11.71118-1.574918l21.41275 12.5067 5.844042-10.07484M521.620615 138.47752h-42.548313V48.753535h14.321365v78.69956h28.226948v11.024423M531.830362 138.47752h2.379195v-9.12526h3.095263v-1.852844h-8.708314v1.852845h3.233856v9.12526zm18.0403 0h2.2406v-11.001264h-3.37245l-2.748777 7.50402-2.979768-7.50402h-3.233857v11.001263h2.125106v-8.36096h.115495l3.118362 8.36096h1.61693l3.11836-8.36096v8.36096M539.591618 18.714298c-8.662116-.208445-15.36082.648496-20.97387 3.034033-1.616928.648496-4.204013.648496-4.435003 2.709785.87776.85694.970157 2.269734 1.732423 3.474083 1.293543 2.177092 3.557242 5.095322 5.61305 6.600758 2.2637 1.73704 4.5505 3.474083 6.929694 4.97952 4.204014 2.61714 8.962403 4.122577 13.07402 6.71656 2.379195 1.505435 4.75839 3.474082 7.137584 5.09532 1.178048.85694 1.940314 2.269735 3.464846 2.825588v-.324247c-.762266-.972744-.970157-2.385537-1.732423-3.474083-1.085653-1.065386-2.171305-2.06129-3.256957-3.126675-3.14146-4.238382-7.022088-7.89775-11.2492-10.954943-3.464847-2.385537-11.04131-5.651175-12.42725-9.63479 0 0-.115495-.115803-.20789-.231605 2.379194-.208445 5.19727-1.088546 7.46097-1.737042 3.672736-.972743 7.022087-.764298 10.81032-1.73704 1.732422-.440052 3.464846-.972744 5.19727-1.505437v-.972743c-1.963414-1.945487-3.349353-4.56263-5.405162-6.392313-5.497555-4.771074-11.572585-9.426345-17.832408-13.34048-3.34935-2.17709-7.69196-3.566724-11.2492-5.419568-1.293544-.648497-3.44175-.972744-4.204015-2.06129-1.940314-2.385537-3.025966-5.512212-4.435003-8.3378-3.14146-5.952262-6.167427-12.57618-8.870007-18.85269-1.940314-4.21522-3.14146-8.453602-5.520655-12.344575-11.133706-18.4358-23.23757-29.599187-41.832245-40.530968-3.996123-2.269734-8.754512-3.265638-13.836287-4.446826-2.70258-.115802-5.40516-.324247-8.10774-.44005-1.732423-.764298-3.464847-2.825587-4.96628-3.79833-6.167427-3.890973-22.059522-12.344575-26.58692-1.181188-2.910472 7.040808 4.319507 13.988974 6.814197 17.5557 1.82482 2.50134 4.227112 5.303766 5.520655 8.129353.762266 1.852844.970157 3.79833 1.732423 5.743817 1.732423 4.771074 3.349352 10.07484 5.61305 14.521667 1.17805 2.269733 2.471592 4.65527 3.996124 6.71656.87776 1.204348 2.379193 1.73704 2.70258 3.682527-1.501434 2.153932-1.61693 5.41957-2.49469 8.129355-3.880628 12.251932-2.379195 27.422095 3.14146 36.43155 1.732424 2.709785 5.84404 8.662047 11.341598 6.392312 4.873883-1.945486 3.788232-8.129354 5.19727-13.548923.323385-1.32015.115494-2.17709.762265-3.034032v.208445c1.524533 3.034033 3.025966 5.952263 4.435004 8.986295 3.34935 5.303767 9.193392 10.83914 14.067276 14.521667 2.587085 1.968647 4.642894 5.303767 7.87675 6.508115v-.324247h-.20789c-.64677-.972744-1.616928-1.412794-2.49469-2.153932-1.940313-1.945485-4.111617-4.331022-5.61305-6.508114-4.5274-6.068065-8.546622-12.784626-12.103864-19.732792-1.732424-3.35828-3.256956-7.040808-4.642895-10.399088-.64677-1.29699-.64677-3.242477-1.732423-3.890973-1.61693 2.385537-3.996123 4.446826-5.17417 7.365056-2.05581 4.65527-2.2637 10.399087-3.025967 16.37451-.43888.115803-.20789 0-.43888.208445-3.464847-.85694-4.642894-4.446826-5.936437-7.457698-3.233857-7.712464-3.788232-20.05704-.970157-28.950692.762267-2.269734 3.996124-9.426345 2.70258-11.603437-.64677-2.06129-2.818074-3.242477-3.996122-4.886876-1.409037-2.06129-2.93357-4.655272-3.880628-6.925006-2.587085-6.068065-3.903726-12.784625-6.698703-18.85269-1.293542-2.825588-3.58034-5.743817-5.40516-8.3378-2.05581-2.91823-4.319508-4.979518-5.959536-8.4536-.531275-1.20435-1.29354-3.149836-.43888-4.446827.207892-.880102.646772-1.20435 1.524533-1.412795 1.409038-1.181188 5.40516.324248 6.814198.972743 3.996124 1.62124 7.345475 3.149835 10.694827 5.41957 1.524532 1.088546 3.14146 3.149835 5.081775 3.682528h2.2637c3.464846.764298 7.345474.208444 10.60243 1.181188 5.728545 1.829683 10.925815 4.56263 15.56871 7.480858 14.15967 8.986295 25.824654 21.79408 33.724504 37.080046 1.293542 2.50134 1.847918 4.771074 3.025965 7.365056 2.2637 5.326927 5.081776 10.746497 7.345476 15.93446 2.2637 5.095322 4.435003 10.283286 7.69196 14.521667 1.616927 2.269736 8.10774 3.474084 11.01821 4.655273 2.148205.972743 5.520655 1.829683 7.46097 3.034032 3.672736 2.269734 7.345474 4.886877 10.81032 7.365056 1.663126 1.27383 7.068287 3.983616 7.391672 6.160708"/>
  <path class="st0" d="M429.317108-75.502832c-1.82482 0-3.118362.231605-4.435004.555853v.208446h.20789c.877762 1.73704 2.379196 2.94139 3.464847 4.446826.877763 1.737042 1.64003 3.450923 2.49469 5.187964.115496-.115803.207892-.231605.207892-.231605 1.524532-1.088545 2.286798-2.802426 2.286798-5.41957-.64677-.764297-.762266-1.528595-1.293542-2.269733-.66987-1.065386-2.078908-1.598078-2.93357-2.47818"/>
</svg>
