<svg id="svg3355" xmlns="http://www.w3.org/2000/svg" xmlns:xlink="http://www.w3.org/1999/xlink" width="553" height="338.7" viewBox="246 -139.7 553 338.7">
  <style>
    .st0{clip-path:url(#SVGID_2_);} .st1{fill:url(#path3481_1_);} .st2{clip-path:url(#SVGID_4_);} .st3{fill:url(#path3541_1_);} .st4{clip-path:url(#SVGID_6_);} .st5{fill:#4e8c63;} .st6{clip-path:url(#SVGID_8_);} .st7{fill:url(#path3575_1_);} .st8{clip-path:url(#SVGID_10_);} .st9{fill:url(#path3605_1_);}
  </style>
  <g id="g3363">
    <g transform="matrix(1.25 0 0 -1.25 -97.88 544.98)" id="g3449">
      <defs>
        <path id="SVGID_1_" d="M435.8 485.1l-42.1-24.3c-1.6-.9-2.5-2.6-2.5-4.4v-48.7c0-1.8 1-3.5 2.5-4.4l42.1-24.3c1.6-.9 3.5-.9 5.1 0l42.1 24.3c1.6.9 2.5 2.6 2.5 4.4v48.7c0 1.8-1 3.5-2.5 4.4l-42.1 24.3c-.8.5-1.7.7-2.5.7-.9 0-1.8-.2-2.6-.7"/>
      </defs>
      <clipPath id="SVGID_2_">
        <use xlink:href="#SVGID_1_" overflow="visible"/>
      </clipPath>
      <g id="g3451" class="st0">
        <g id="g3457">
          <g id="g3459">
            <g id="g3465">
              <g id="g3467">
                <linearGradient id="path3481_1_" gradientUnits="userSpaceOnUse" x1="470.2896" y1="387.5973" x2="471.2896" y2="387.5973" gradientTransform="matrix(121.77 0 0 -121.77 -56878.09 47692.1)">
                  <stop offset="0" stop-color="#9BB48F"/>
                  <stop offset=".091916" stop-color="#9BB48F"/>
                  <stop offset=".3026" stop-color="#9BB48F"/>
                  <stop offset=".8624" stop-color="#687E67"/>
                  <stop offset="1" stop-color="#687E67"/>
                </linearGradient>
                <path id="path3481" class="st1" d="M434.4 494.1l-.6-.3h.8l-.2.3z"/>
              </g>
            </g>
          </g>
        </g>
      </g>
    </g>
    <g transform="matrix(1.25 0 0 -1.25 -97.88 544.98)" id="g3509">
      <defs>
        <path id="SVGID_3_" d="M435.8 485.1l-42.1-24.3c-1.6-.9-2.5-2.6-2.5-4.4v-48.7c0-1.8 1-3.5 2.5-4.4l42.1-24.3c1.6-.9 3.5-.9 5.1 0l42.1 24.3c1.6.9 2.5 2.6 2.5 4.4v48.7c0 1.8-1 3.5-2.5 4.4l-42.1 24.3c-.8.5-1.7.7-2.5.7-.9 0-1.8-.2-2.6-.7"/>
      </defs>
      <clipPath id="SVGID_4_">
        <use xlink:href="#SVGID_3_" overflow="visible"/>
      </clipPath>
      <g id="g3511" class="st2">
        <g id="g3517">
          <g id="g3519">
            <g id="g3525">
              <g id="g3527">
                <linearGradient id="path3541_1_" gradientUnits="userSpaceOnUse" x1="470.2896" y1="387.5973" x2="471.2896" y2="387.5973" gradientTransform="matrix(121.77 0 0 -121.77 -56878.09 47602.47)">
                  <stop offset="0" stop-color="#9BB48F"/>
                  <stop offset=".091916" stop-color="#9BB48F"/>
                  <stop offset=".3026" stop-color="#9BB48F"/>
                  <stop offset=".8624" stop-color="#687E67"/>
                  <stop offset="1" stop-color="#687E67"/>
                </linearGradient>
                <path id="path3541" class="st3" d="M487.1 404.1l-.3.5v-.6l.3.1z"/>
              </g>
            </g>
          </g>
        </g>
      </g>
    </g>
    <g id="g3590">
      <g transform="matrix(1.25 0 0 -1.25 -97.88 544.98)" id="g3365">
        <defs>
          <path id="SVGID_5_" d="M121.8 36.7h750v750h-750z"/>
        </defs>
        <clipPath id="SVGID_6_">
          <use xlink:href="#SVGID_5_" overflow="visible"/>
        </clipPath>
        <g id="g3367" class="st4">
          <g id="g3373">
            <path id="path3375" class="st5" d="M493.7532 276.7556c-1.5 0-2.9.4-4.2 1.1l-13.3 7.9c-2 1.1-1 1.5-.4 1.7 2.7.9 3.2 1.1 6 2.7.3.2.7.1 1-.1l10.2-6.1c.4-.2.9-.2 1.2 0l39.9 23.1c.4.2.6.6.6 1.1v46.1c0 .5-.2.9-.6 1.1l-39.9 23c-.4.2-.9.2-1.2 0l-39.9-23c-.4-.2-.6-.7-.6-1.1v-46.1c0-.4.2-.9.6-1.1l10.9-6.3c5.9-3 9.6.5 9.6 4v45.5c0 .6.5 1.2 1.2 1.2h5.1c.6 0 1.2-.5 1.2-1.2v-45.5c0-7.9-4.3-12.5-11.8-12.5-2.3 0-4.1 0-9.2 2.5l-10.5 6c-2.6 1.5-4.2 4.3-4.2 7.3v46.1c0 3 1.6 5.8 4.2 7.3l39.9 23.1c2.5 1.4 5.9 1.4 8.4 0l39.9-23.1c2.6-1.5 4.2-4.3 4.2-7.3v-46.1c0-3-1.6-5.8-4.2-7.3l-39.9-22.9c-1.3-.7-2.7-1.1-4.2-1.1"/>
          </g>
          <g id="g3377">
            <path id="path3379" class="st5" d="M506.0934 308.5184c-17.5 0-21.1 8-21.1 14.8 0 .6.5 1.2 1.2 1.2h5.2c.6 0 1.1-.4 1.1-1 .8-5.3 3.1-7.9 13.7-7.9 8.4 0 12 1.9 12 6.4 0 2.6-1 4.5-14.1 5.8-10.9 1.1-17.7 3.5-17.7 12.2 0 8.1 6.8 12.9 18.2 12.9 12.8 0 19.1-4.4 19.9-14 0-.3-.1-.6-.3-.9-.2-.2-.5-.4-.8-.4h-5.2c-.5 0-1 .4-1.1.9-1.2 5.5-4.3 7.3-12.5 7.3-9.2 0-10.3-3.2-10.3-5.6 0-2.9 1.3-3.8 13.7-5.4 12.3-1.6 18.1-3.9 18.1-12.5-.1-8.8-7.3-13.8-20-13.8"/>
          </g>
          <g id="g3381">
            <path id="path3383" class="st5" d="M554.7388 357.3999h1.3c1.1 0 1.3.8 1.3 1.2 0 1.2-.8 1.2-1.3 1.2h-1.4v-2.4zm-1.6 3.8h3c1 0 3 0 3-2.3 0-1.6-1-1.9-1.6-2.1 1.2-.1 1.3-.9 1.4-2 .1-.7.2-1.9.4-2.3h-1.8c0 .4-.3 2.6-.3 2.7-.1.5-.3.7-.9.7h-1.5v-3.5h-1.7v8.8zm-3.6-4.3c0-3.6 2.9-6.5 6.4-6.5 3.6 0 6.5 3 6.5 6.5 0 3.6-2.9 6.4-6.5 6.4-3.5.1-6.4-2.8-6.4-6.4m14.2 0c0-4.2-3.5-7.7-7.7-7.7s-7.7 3.4-7.7 7.7c0 4.4 3.6 7.7 7.7 7.7s7.7-3.3 7.7-7.7"/>
          </g>
          <g id="g3385">
            <path id="path3387" class="st5" d="M370.0428 457.1329c0 1.8-1 3.5-2.6 4.4l-42.4 24.4c-.7.4-1.5.6-2.3.7h-.4c-.8 0-1.6-.3-2.3-.7l-42.4-24.4c-1.6-.9-2.6-2.6-2.6-4.4l.1-65.6c0-.9.5-1.8 1.3-2.2.8-.5 1.8-.5 2.5 0l25.2 14.4c1.6.9 2.6 2.6 2.6 4.4v30.7c0 1.8 1 3.5 2.6 4.4l10.7 6.2c.8.5 1.7.7 2.6.7.9 0 1.8-.2 2.5-.7l10.7-6.2c1.6-.9 2.6-2.6 2.6-4.4v-30.7c0-1.8 1-3.5 2.6-4.4l25.2-14.4c.8-.5 1.8-.5 2.6 0 .8.4 1.3 1.3 1.3 2.2l-.1 65.6z"/>
          </g>
          <g id="g3389">
            <path id="path3391" class="st5" d="M569.9093 422.9569c0-.5-.2-.9-.6-1.1l-14.5-8.4c-.4-.2-.9-.2-1.3 0l-14.5 8.4c-.4.2-.6.6-.6 1.1v16.8c0 .5.2.9.6 1.1l14.5 8.4c.4.2.9.2 1.3 0l14.5-8.4c.4-.2.6-.7.6-1.1v-16.8zm3.9 124.4c-.8.4-1.8.4-2.5 0-.8-.5-1.3-1.3-1.3-2.2v-65c0-.6-.3-1.2-.9-1.6-.6-.3-1.2-.3-1.8 0l-10.6 6.1c-1.6.9-3.5.9-5.1 0l-42.4-24.4c-1.6-.9-2.6-2.6-2.6-4.4v-48.9c0-1.8 1-3.5 2.6-4.4l42.4-24.5c1.6-.9 3.5-.9 5.1 0l42.4 24.4c1.6.9 2.6 2.6 2.6 4.4v121.9c0 1.9-1 3.6-2.6 4.5l-25.3 14.1z"/>
          </g>
          <g id="g3393">
            <path id="path3395" class="st5" d="M714.931 440.195c1.6.9 2.5 2.6 2.5 4.4v11.9c0 1.8-1 3.5-2.5 4.4l-42.1 24.4c-1.6.9-3.5.9-5.1 0l-42.4-24.5c-1.6-.9-2.6-2.6-2.6-4.4v-48.8c0-1.8 1-3.5 2.6-4.4l42.1-24c1.6-.9 3.5-.9 5 0l25.5 14.2c.8.4 1.3 1.3 1.3 2.2 0 .9-.5 1.8-1.3 2.2l-42.6 24.5c-.8.5-1.3 1.3-1.3 2.2v15.3c0 .9.5 1.8 1.3 2.2l13.3 7.6c.8.5 1.8.5 2.6 0l13.3-7.6c.8-.5 1.3-1.3 1.3-2.2v-12.1c0-.9.5-1.8 1.3-2.2.8-.5 1.8-.5 2.6 0l25.2 14.7z"/>
          </g>
          <g id="g3397">
            <path id="path3399" class="st5" d="M669.6422 442.4856c.3.2.7.2 1 0l8.1-4.7c.3-.2.5-.5.5-.9v-9.4c0-.4-.2-.7-.5-.9l-8.1-4.7c-.3-.2-.7-.2-1 0l-8.1 4.7c-.3.2-.5.5-.5.9v9.4c0 .4.2.7.5.9l8.1 4.7z"/>
          </g>
        </g>
      </g>
      <g id="g3401">
        <g id="g3403">
          <g id="g3409">
            <g id="g3411">
              <path id="path3421" class="st5" d="M446.87-61.395L394.245-31.02c-2 1.125-3.125 3.25-3.125 5.5v60.875c0 2.25 1.25 4.375 3.125 5.5L446.87 71.23c2 1.125 4.375 1.125 6.375 0l52.625-30.375c2-1.125 3.125-3.25 3.125-5.5V-25.52c0-2.25-1.25-4.375-3.125-5.5l-52.625-30.375c-1-.625-2.125-.875-3.125-.875-1.125 0-2.25.25-3.25.875"/>
            </g>
          </g>
        </g>
      </g>
      <g id="g3423">
        <g id="g3425">
          <g id="g3431">
            <g id="g3433">
              <path id="path3447" class="st5" d="M392.37 39.23c.5.625 1.125 1.25 1.875 1.625L439.37 66.98l7.5 4.375c1.125.625 2.375.875 3.625.875.375 0 .875-.125 1.25-.25l55.5-101.75c-.375-.5-.875-.875-1.5-1.125l-34.5-19.875-18.25-10.5c-.5-.25-1.125-.5-1.625-.625l-59 101.125z"/>
            </g>
          </g>
        </g>
      </g>
      <g id="g3483">
        <g id="g3485">
          <g id="g3491">
            <g id="g3493">
              <path id="path3507" class="st5" d="M449.495-62.27c-.875.125-1.75.375-2.5.875l-52.5 30.25L451.12 71.98c.75-.125 1.5-.375 2.25-.75l52.625-30.375c1.625-1 2.75-2.5 3.125-4.375l-57.75-98.625c-.375-.125-.875-.125-1.25-.125h-.625"/>
            </g>
          </g>
        </g>
      </g>
      <g transform="matrix(1.25 0 0 -1.25 -97.88 544.98)" id="g3543">
        <defs>
          <path id="SVGID_7_" d="M435.8 485.1l-42.1-24.3c-1.6-.9-2.5-2.6-2.5-4.4v-48.7c0-1.8 1-3.5 2.5-4.4l42.1-24.3c1.6-.9 3.5-.9 5.1 0l42.1 24.3c1.6.9 2.5 2.6 2.5 4.4v48.7c0 1.8-1 3.5-2.5 4.4l-42.1 24.3c-.8.5-1.7.7-2.5.7-.9 0-1.8-.2-2.6-.7"/>
        </defs>
        <clipPath id="SVGID_8_">
          <use xlink:href="#SVGID_7_" overflow="visible"/>
        </clipPath>
        <g id="g3545" class="st6">
          <g id="g3551">
            <g id="g3553">
              <g id="g3559">
                <g id="g3561">
                  <linearGradient id="path3575_1_" gradientUnits="userSpaceOnUse" x1="470.2896" y1="387.5973" x2="471.2896" y2="387.5973" gradientTransform="matrix(121.77 0 0 -121.77 -56878.09 47589.9)">
                    <stop offset="0" stop-color="#9BB48F"/>
                    <stop offset=".091916" stop-color="#9BB48F"/>
                    <stop offset=".3026" stop-color="#9BB48F"/>
                    <stop offset=".8624" stop-color="#687E67"/>
                    <stop offset="1" stop-color="#687E67"/>
                  </linearGradient>
                  <path id="path3575" class="st7" d="M483.2 403.3L441 379c-.6-.3-1.2-.5-1.9-.6l.8-1.5 46.8 27.1v.6l-1.2 2c-.2-1.4-1.1-2.6-2.3-3.3"/>
                </g>
              </g>
            </g>
          </g>
        </g>
      </g>
      <g transform="matrix(1.25 0 0 -1.25 -97.88 544.98)" id="g3577">
        <defs>
          <path id="SVGID_9_" d="M435.8 485.1l-42.1-24.3c-1.6-.9-2.5-2.6-2.5-4.4v-48.7c0-1.8 1-3.5 2.5-4.4l42.1-24.3c1.6-.9 3.5-.9 5.1 0l42.1 24.3c1.6.9 2.5 2.6 2.5 4.4v48.7c0 1.8-1 3.5-2.5 4.4l-42.1 24.3c-.8.5-1.7.7-2.5.7-.9 0-1.8-.2-2.6-.7"/>
        </defs>
        <clipPath id="SVGID_10_">
          <use xlink:href="#SVGID_9_" overflow="visible"/>
        </clipPath>
        <g id="g3579" class="st8">
          <g id="g3585">
            <g id="g3587">
              <g id="g3593">
                <g id="g3595">
                  <linearGradient id="path3605_1_" gradientUnits="userSpaceOnUse" x1="471.8283" y1="389.833" x2="472.8283" y2="389.833" gradientTransform="scale(170.62) rotate(-116.1 359.77 -47.37)">
                    <stop offset="0" stop-color="#687E67"/>
                    <stop offset=".5288" stop-color="#687E67"/>
                    <stop offset="1" stop-color="#83A178"/>
                  </linearGradient>
                  <path id="path3605" class="st9" d="M483.2 403.3L441 379c-.6-.3-1.2-.5-1.9-.6l.8-1.5 46.8 27.1v.6l-1.2 2c-.2-1.4-1.1-2.6-2.3-3.3"/>
                </g>
              </g>
            </g>
          </g>
        </g>
      </g>
    </g>
  </g>
</svg>
