<svg id="Layer_1" xmlns="http://www.w3.org/2000/svg" width="256" height="134" viewBox="98 -37 256 134">
  <style>
    .st0{fill:#4e8c63;} .st1{fill:#F2F2F2;}
  </style>
  <ellipse class="st0" cx="226" cy="30" rx="128" ry="66.6"/>
  <path class="st1" d="M180.4-1.6H148l-14 71h16.7l3.5-18.4H170c14.9.9 31.6-11.4 31.6-32.4-.1-12.3-7.2-19.3-21.2-20.2zm-12.3 39.5h-10.5l4.4-26.3h11.4c6.1 0 10.5 2.6 10.5 7.9-.9 14.9-7.9 17.5-15.8 18.4zM198.2 51l14-71h16.7l-3.5 18.4h15.8c14 .9 19.3 7.9 17.5 16.7L252.5 51H235l6.1-32.4c.9-4.4.9-7-5.3-7h-13.2L214.8 51h-16.6zM297.9-1.6h-32.4l-14 71h16.7l3.5-18.4h15.8c14.9.9 31.6-11.4 31.6-32.4-.2-12.3-7.2-19.3-21.2-20.2zm-12.3 39.5h-10.5l4.4-26.3h11.4c6.1 0 10.5 2.6 10.5 7.9-.9 14.9-7.9 17.5-15.8 18.4z"/>
</svg>
