<svg id="Layer_2" xmlns="http://www.w3.org/2000/svg" width="1772" height="600" viewBox="270 -270 1772 600">
  <style>
    .st0{fill:#E1E7E9;} .st1{fill:#4e8c63;} .st2{fill:none;stroke:#4e8c63;;stroke-width:24;stroke-miterlimit:10;}
  </style>
  <path class="st0" d="M270-270h600v600H270z"/>
  <circle class="st1" cx="569.5" cy="29.6" r="50.2"/>
  <path class="st2" d="M569.5-72.4c67.4 0 129.9 9.7 177.1 25.9 56.8 19.6 91.8 49.2 91.8 76.1 0 28-37 59.5-98.1 79.7-46.2 15.3-106.9 23.3-170.8 23.3-65.6 0-127.6-7.5-174.3-23.4-59-20.2-94.6-52.1-94.6-79.6C300.6 3 334-26.4 390-46c47.4-16.5 111.5-26.4 179.5-26.4z"/>
  <path class="st2" d="M480.7-21.1c33.6-58.3 73.3-107.7 110.9-140.5 45.3-39.5 88.5-54.9 111.8-41.5 24.2 14 33 61.8 20.1 124.8-9.8 47.6-33.2 104.2-65.2 159.6-32.7 56.8-70.3 106.8-107.4 139.3-47 41.1-92.4 55.9-116.2 42.2-23.1-13.3-31.9-56.9-20.8-115.2 9.4-49.3 32.9-109.8 66.8-168.7z"/>
  <path class="st2" d="M480.8 81.5c-33.7-58.3-56.7-117.3-66.3-166.3-11.5-59-3.4-104.1 19.9-117.6 24.2-14 70.1 2.2 118.1 44.9 36.4 32.3 73.7 80.8 105.7 136.2 32.8 56.7 57.5 114.2 67 162.6 12.1 61.2 2.3 108-21.5 121.7-23.1 13.3-65.2-.8-110.2-39.5-37.9-32.6-78.6-83.2-112.7-142z"/>
  <path class="st1" d="M1054.2 25.9v118.8h-34.9v-286.8h74.3c12.6 0 23.2.5 32 1.4 8.8.9 16.8 2.4 24.1 4.4 20 5.4 35.3 14.7 45.8 27.8 10.6 13.1 15.8 29.4 15.8 49 0 11.6-1.9 21.9-5.6 31.1-3.7 9.1-8.9 17.1-15.6 23.8-6.7 6.7-14.8 12.2-24.1 16.5-9.4 4.3-19.8 7.4-31.2 9.4v.7l84.9 122.6h-34.9l-88.3-118.8h-42.3zm0-136.6v105h34.5c10.7 0 19.9-.4 27.4-1.1 7.6-.7 14.4-2 20.4-3.9 12.1-3.7 21.5-9.6 28.1-17.8 6.6-8.1 9.9-18.8 9.9-31.9-.1-12.3-3.3-22.2-9.4-29.7-6.1-7.5-14.6-12.9-25.5-16.2-5.1-1.6-11.3-2.7-18.4-3.4-7.1-.7-16.2-1.1-27.2-1.1h-39.8zM1362.9 121c11 0 21-.9 30.1-2.7 9.1-1.8 18.1-4.3 27.1-7.6v27.7c-7.3 3.6-16.3 6.4-27 8.5-10.7 2.1-22.2 3.1-34.5 3.1-14.6 0-28.3-1.9-41-5.6-12.8-3.7-23.9-9.7-33.2-18-9.4-8.3-16.7-19.1-22-32.5-5.3-13.4-7.9-29.5-7.9-48.3 0-18.6 2.6-34.7 7.7-48.3 5.1-13.6 12-25 20.5-34.2 8.6-9.1 18.4-16 29.5-20.6 11.1-4.6 22.7-6.9 34.9-6.9 11.4 0 22.1 1.9 32 5.7 9.9 3.8 18.5 9.8 25.8 17.9 7.3 8.1 13 18.6 17.2 31.5 4.2 12.9 6.3 28.3 6.3 46.3v4.4c0 1.2-.1 4-.2 8.3h-140.6c0 13 2 24 5.9 33.1 3.9 9.1 9.3 16.4 16.1 22.1 6.8 5.6 14.8 9.8 23.9 12.3 9 2.6 18.8 3.8 29.4 3.8zm-17.5-156.9c-7.7 0-14.8 1.5-21.4 4.5s-12.3 7.1-17.3 12.2c-4.9 5.1-8.9 11.2-11.9 18.1-3 6.9-4.9 14.3-5.6 22.2h104.2c0-8-1.1-15.5-3.1-22.4-2.1-6.9-5.2-13-9.2-18.1s-9-9.2-15-12.1c-6-2.9-12.9-4.4-20.7-4.4zM1603.8 122.1h-.9c-2.7 3.4-6.1 6.8-10.3 10.2-4.1 3.4-8.9 6.4-14.4 9-5.4 2.6-11.4 4.7-17.8 6.3-6.4 1.6-13.3 2.4-20.6 2.4-9.9 0-18.9-1.5-27.1-4.4-8.2-2.9-15.3-7.2-21.2-12.9-5.9-5.6-10.5-12.5-13.8-20.7-3.3-8.1-4.9-17.4-4.9-27.7 0-10.1 1.8-19.2 5.5-27.2 3.6-8 8.8-14.8 15.3-20.4 6.6-5.6 14.5-9.9 23.7-12.9s19.4-4.5 30.5-4.5c10.6.1 20.4 1.1 29.4 2.8s17 3.9 24 6.4h.9v-14c0-5.6-.4-10.5-1.1-14.8-.7-4.3-1.9-8.1-3.6-11.4-3.7-6.9-9.6-12.5-17.8-17-8.1-4.5-19.2-6.8-33-6.8-10.3 0-20 1-29 2.9-9.1 1.9-18.1 4.6-27.1 8v-27.9c3.4-1.7 7.5-3.3 12.1-4.8s9.5-2.8 14.7-3.9c5.1-1.1 10.6-1.9 16.3-2.5 5.7-.6 11.4-.9 17.1-.9 20.6 0 37.4 3.6 50.5 10.9 13.1 7.3 22.5 16.9 28.2 28.9 2.1 4.6 3.7 9.6 4.6 15.1.9 5.5 1.4 11.5 1.4 18.1v135.9h-27.9l-3.7-22.2zm-1.7-66.9c-6.1-1.7-13.4-3.4-21.8-4.9-8.4-1.6-17.6-2.4-27.7-2.6-14.1 0-25.1 3-33.1 9s-12 15.2-12 27.7c0 6.3 1 11.8 3 16.5 2 4.7 4.7 8.6 8.2 11.7 3.5 3.1 7.6 5.4 12.4 6.9 4.8 1.5 9.9 2.3 15.3 2.3 7.1 0 13.7-1 19.8-3.1 6.1-2.1 11.6-4.5 16.3-7.4 4.8-2.9 8.8-5.7 12.2-8.6 3.3-2.9 5.8-5.1 7.4-6.6V55.2zM1787.1-64.4c9.9 0 19.3 1 28.3 3.1s16.7 5 23.2 8.7v27.7c-9-3.4-17.3-6-24.9-7.7-7.6-1.7-15.3-2.6-23.2-2.6-8.3 0-16.5 1.4-24.7 4.1-8.1 2.7-15.4 7.2-21.9 13.4-6.4 6.2-11.6 14.4-15.5 24.7-3.9 10.2-5.9 22.9-5.9 38 0 11 1.5 21.2 4.4 30.4 2.9 9.3 7.3 17.3 13.1 24.1 5.8 6.8 13 12.1 21.8 15.9 8.7 3.8 18.8 5.7 30.2 5.7 8.3 0 16.6-.9 25.1-2.7 8.4-1.8 16.6-4.3 24.7-7.6v27.7c-2.4 1.4-5.6 2.9-9.5 4.3-3.9 1.4-8.3 2.7-13 3.8-4.7 1.1-9.7 1.9-15 2.6-5.3.6-10.6 1-15.9 1-13.7 0-26.7-2.1-38.9-6.2s-22.9-10.5-32-19.1c-9.1-8.6-16.4-19.4-21.7-32.6-5.3-13.1-7.9-28.7-7.9-46.7 0-13.4 1.4-25.5 4.2-36.2 2.8-10.7 6.6-20.1 11.5-28.3 4.9-8.1 10.5-15.1 17-20.8 6.5-5.7 13.4-10.4 20.8-14 7.4-3.6 15-6.3 22.8-7.9 7.8-1.9 15.5-2.8 22.9-2.8zM1999.5 145.1c-2.9 1.1-7.2 2.2-13.1 3.2-5.9 1-12.9 1.6-21 1.7-10.7 0-20-1.3-27.9-4-7.9-2.6-14.4-6.4-19.6-11.4-5.2-4.9-9.1-10.9-11.7-17.9-2.6-7-3.9-14.8-3.9-23.4V-30.5h-39.2V-59h39.2v-55.7h33.2V-59h60.9v28.5h-60.9V88.3c0 4.7.7 9.1 2 13.1 1.4 4 3.5 7.5 6.4 10.4 2.9 2.9 6.7 5.2 11.3 6.9 4.6 1.6 10.1 2.5 16.5 2.5 4.4 0 9.1-.4 14-1.1 4.9-.7 9.5-1.6 13.6-2.8v27.8z"/>
</svg>
