<?xml version="1.0" encoding="utf-8"?>
<!-- Generator: Adobe Illustrator 16.0.0, SVG Export Plug-In . SVG Version: 6.00 Build 0)  -->
<!DOCTYPE svg PUBLIC "-//W3C//DTD SVG 1.1//EN" "http://www.w3.org/Graphics/SVG/1.1/DTD/svg11.dtd">
<svg fill="#efefef" version="1.1" id="Warstwa_1" xmlns="http://www.w3.org/2000/svg" xmlns:xlink="http://www.w3.org/1999/xlink" x="0px" y="0px"
	 width="81.391px" height="67.197px" viewBox="0 0 81.391 67.197" enable-background="new 0 0 81.391 67.197" xml:space="preserve">
<g>
	<path d="M13.087,7.824l-1.181-7.068L9.51,3.587l0.713,4.237h-0.057l7.31,36.775c-3.486,0.269-6.384,2.954-6.729,6.329
		c-0.202,1.981,0.454,3.976,1.793,5.453c1.339,1.483,3.251,2.333,5.239,2.333h2.831c0,4.68,3.802,8.482,8.474,8.482
		c4.68,0,8.482-3.803,8.482-8.482h15.552c0,4.68,3.803,8.482,8.482,8.482c4.673,0,8.482-3.803,8.482-8.482h5.653
		c0.78,0,1.415-0.628,1.415-1.415c0-0.78-0.635-1.408-1.415-1.408h-6.149c-1.167-3.292-4.301-5.66-7.986-5.66
		s-6.819,2.368-7.985,5.66H37.078c-1.173-3.292-4.308-5.66-7.993-5.66c-3.686,0-6.819,2.368-7.985,5.66h-3.32
		c-1.187,0-2.332-0.518-3.14-1.408c-0.822-0.904-1.202-2.063-1.078-3.271c0.214-2.133,2.183-3.803,4.486-3.803h56.288
		c3.893,0,7.055-3.162,7.055-7.054V7.824H13.087z M61.602,53.062c3.12,0,5.653,2.533,5.653,5.653c0,3.119-2.533,5.652-5.653,5.652
		s-5.652-2.533-5.652-5.652C55.949,55.595,58.481,53.062,61.602,53.062L61.602,53.062z M29.085,53.062
		c3.121,0,5.661,2.533,5.661,5.653c0,3.119-2.541,5.652-5.661,5.652c-3.111,0-5.652-2.533-5.652-5.652
		C23.433,55.595,25.974,53.062,29.085,53.062L29.085,53.062z M78.561,40.355c0,2.333-1.892,4.224-4.218,4.224H20.354l-6.743-33.924
		h64.949V40.355z M77.856,40.251"/>
</g>
<rect x="0.994" y="0.756" width="10.749" height="2.816"/>
<rect x="14.1" y="20.961" width="65.233" height="1.408"/>
<rect x="46.495" y="26.439" transform="matrix(-0.0147 -0.9999 0.9999 -0.0147 38.7874 92.7041)" width="37.151" height="1.603"/>
<rect x="12.508" y="25.694" transform="matrix(-0.0895 -0.996 0.996 -0.0895 7.4755 59.8262)" width="37.151" height="1.605"/>
<rect x="29.91" y="25.842" transform="matrix(-0.0226 -0.9997 0.9997 -0.0226 22.9441 75.7185)" width="37.15" height="1.603"/>
<rect x="15.866" y="32.971" width="65.234" height="1.408"/>
<circle cx="1.408" cy="2.165" r="1.408"/>
</svg>
